<svg fill="none" height="24" viewBox="0 0 24 24" width="24" xmlns="http://www.w3.org/2000/svg"><g fill="#ffffff"><path d="m12 9c-.5523 0-1 .44771-1 1v5.2676c-.5978.3458-1 .9921-1 1.7324 0 1.1046.8954 2 2 2s2-.8954 2-2c0-.7403-.4022-1.3866-1-1.7324v-5.2676c0-.55229-.4477-1-1-1z"/><path d="m11 6c0-.55228.4477-1 1-1s1 .44772 1 1-.4477 1-1 1-1-.44772-1-1z"/><path d="m16 7c-.5523 0-1 .44772-1 1 0 .55229.4477 1 1 1s1-.44771 1-1c0-.55228-.4477-1-1-1z"/><path d="m6 13c-.55228 0-1-.4477-1-1s.44772-1 1-1 1 .4477 1 1-.44772 1-1 1z"/><path d="m7 8c0 .55229.44772 1 1 1s1-.44772 1-1-.44772-1-1-1-1 .44772-1 1z"/><path d="m18 13c-.5523 0-1-.4477-1-1s.4477-1 1-1 1 .4477 1 1-.4477 1-1 1z"/><path clip-rule="evenodd" d="m12 23c6.0751 0 11-4.9249 11-11 0-6.07513-4.9249-11-11-11-6.07513 0-11 4.92487-11 11 0 6.0751 4.92487 11 11 11zm0-2.0068c-4.96679 0-8.99317-4.0264-8.99317-8.9932 0-4.96679 4.02638-8.99317 8.99317-8.99317 4.9668 0 8.9932 4.02638 8.9932 8.99317 0 4.9668-4.0264 8.9932-8.9932 8.9932z" fill-rule="evenodd"/></g></svg>